solid cube-with-tube-5.len_side-2.397_tube_diameter-0.986_segments-50
  facet normal -0.000000 0.000000 -1.000000
    outer loop
      vertex 1.616097 0.000000 0.000000
      vertex 1.766903 2.397000 0.000000
      vertex 2.397000 2.397000 0.000000
    endloop
  endfacet
  facet normal -0.000000 0.000000 -1.000000
    outer loop
      vertex 1.616097 0.000000 0.000000
      vertex 2.397000 2.397000 0.000000
      vertex 2.397000 0.000000 0.000000
    endloop
  endfacet
  facet normal -0.000000 -0.000000 -1.000000
    outer loop
      vertex 1.687613 1.136711 0.000000
      vertex 1.616097 0.000000 0.000000
      vertex 1.470773 0.000000 0.000000
    endloop
  endfacet
  facet normal -0.000000 -0.000000 -1.000000
    outer loop
      vertex 1.676011 1.075896 0.000000
      vertex 1.470773 0.000000 0.000000
      vertex 1.326432 0.000000 0.000000
    endloop
  endfacet
  facet normal -0.000000 -0.000000 -1.000000
    outer loop
      vertex 1.656880 1.017015 0.000000
      vertex 1.326432 0.000000 0.000000
      vertex 1.178309 0.000000 0.000000
    endloop
  endfacet
  facet normal -0.000000 -0.000000 -1.000000
    outer loop
      vertex 1.630519 0.960995 0.000000
      vertex 1.178309 0.000000 0.000000
      vertex 1.020653 0.000000 0.000000
    endloop
  endfacet
  facet normal -0.000000 -0.000000 -1.000000
    outer loop
      vertex 1.597345 0.908722 0.000000
      vertex 1.020653 0.000000 0.000000
      vertex 0.845585 0.000000 0.000000
    endloop
  endfacet
  facet normal -0.000000 -0.000000 -1.000000
    outer loop
      vertex 1.557882 0.861018 0.000000
      vertex 0.845585 0.000000 0.000000
      vertex 0.640990 0.000000 0.000000
    endloop
  endfacet
  facet normal -0.000000 -0.000000 -1.000000
    outer loop
      vertex 1.512750 0.818637 0.000000
      vertex 0.640990 0.000000 0.000000
      vertex 0.385993 0.000000 0.000000
    endloop
  endfacet
  facet normal -0.000000 -0.000000 -1.000000
    outer loop
      vertex 1.462663 0.782246 0.000000
      vertex 0.385993 0.000000 0.000000
      vertex 0.039762 0.000000 0.000000
    endloop
  endfacet
  facet normal -0.000000 -0.000000 -1.000000
    outer loop
      vertex 1.408409 0.752420 0.000000
      vertex 0.039762 0.000000 0.000000
      vertex 0.000000 0.000000 0.000000
    endloop
  endfacet
  facet normal -0.000000 -0.000000 -1.000000
    outer loop
      vertex 1.408409 0.752420 0.000000
      vertex 0.000000 0.000000 0.000000
      vertex 0.000000 0.194792 0.000000
    endloop
  endfacet
  facet normal 0.000000 -0.000000 -1.000000
    outer loop
      vertex 1.350845 0.729629 0.000000
      vertex 0.000000 0.194792 0.000000
      vertex 0.000000 0.382791 0.000000
    endloop
  endfacet
  facet normal 0.000000 -0.000000 -1.000000
    outer loop
      vertex 1.290879 0.714232 0.000000
      vertex 0.000000 0.382791 0.000000
      vertex 0.000000 0.551156 0.000000
    endloop
  endfacet
  facet normal 0.000000 -0.000000 -1.000000
    outer loop
      vertex 1.229456 0.706473 0.000000
      vertex 0.000000 0.551156 0.000000
      vertex 0.000000 0.706473 0.000000
    endloop
  endfacet
  facet normal -0.000000 -0.000000 -1.000000
    outer loop
      vertex 1.167544 0.706473 0.000000
      vertex 0.000000 0.706473 0.000000
      vertex 0.000000 0.853968 0.000000
    endloop
  endfacet
  facet normal -0.000000 -0.000000 -1.000000
    outer loop
      vertex 1.106121 0.714232 0.000000
      vertex 0.000000 0.853968 0.000000
      vertex 0.000000 0.998236 0.000000
    endloop
  endfacet
  facet normal -0.000000 -0.000000 -1.000000
    outer loop
      vertex 1.046155 0.729629 0.000000
      vertex 0.000000 0.998236 0.000000
      vertex 0.000000 1.143831 0.000000
    endloop
  endfacet
  facet normal -0.000000 -0.000000 -1.000000
    outer loop
      vertex 0.988591 0.752420 0.000000
      vertex 0.000000 1.143831 0.000000
      vertex 0.000000 1.295903 0.000000
    endloop
  endfacet
  facet normal -0.000000 -0.000000 -1.000000
    outer loop
      vertex 0.934337 0.782246 0.000000
      vertex 0.000000 1.295903 0.000000
      vertex 0.000000 1.461082 0.000000
    endloop
  endfacet
  facet normal -0.000000 -0.000000 -1.000000
    outer loop
      vertex 0.884250 0.818637 0.000000
      vertex 0.000000 1.461082 0.000000
      vertex 0.000000 1.649003 0.000000
    endloop
  endfacet
  facet normal -0.000000 -0.000000 -1.000000
    outer loop
      vertex 0.839118 0.861018 0.000000
      vertex 0.000000 1.649003 0.000000
      vertex 0.000000 1.875338 0.000000
    endloop
  endfacet
  facet normal -0.000000 -0.000000 -1.000000
    outer loop
      vertex 0.799655 0.908722 0.000000
      vertex 0.000000 1.875338 0.000000
      vertex 0.000000 2.168776 0.000000
    endloop
  endfacet
  facet normal -0.000000 -0.000000 -1.000000
    outer loop
      vertex 0.766481 0.960995 0.000000
      vertex 0.000000 2.168776 0.000000
      vertex 0.000000 2.397000 0.000000
    endloop
  endfacet
  facet normal -0.000000 -0.000000 -1.000000
    outer loop
      vertex 0.766481 0.960995 0.000000
      vertex 0.000000 2.397000 0.000000
      vertex 0.090748 2.397000 0.000000
    endloop
  endfacet
  facet normal -0.000000 -0.000000 -1.000000
    outer loop
      vertex 0.740120 1.017015 0.000000
      vertex 0.090748 2.397000 0.000000
      vertex 0.291736 2.397000 0.000000
    endloop
  endfacet
  facet normal -0.000000 -0.000000 -1.000000
    outer loop
      vertex 0.720989 1.075896 0.000000
      vertex 0.291736 2.397000 0.000000
      vertex 0.468974 2.397000 0.000000
    endloop
  endfacet
  facet normal -0.000000 -0.000000 -1.000000
    outer loop
      vertex 0.709387 1.136711 0.000000
      vertex 0.468974 2.397000 0.000000
      vertex 0.630097 2.397000 0.000000
    endloop
  endfacet
  facet normal -0.000000 -0.000000 -1.000000
    outer loop
      vertex 0.705500 1.198500 0.000000
      vertex 0.630097 2.397000 0.000000
      vertex 0.780903 2.397000 0.000000
    endloop
  endfacet
  facet normal -0.000000 -0.000000 -1.000000
    outer loop
      vertex 0.709387 1.260289 0.000000
      vertex 0.780903 2.397000 0.000000
      vertex 0.926227 2.397000 0.000000
    endloop
  endfacet
  facet normal -0.000000 -0.000000 -1.000000
    outer loop
      vertex 0.720989 1.321104 0.000000
      vertex 0.926227 2.397000 0.000000
      vertex 1.070568 2.397000 0.000000
    endloop
  endfacet
  facet normal -0.000000 -0.000000 -1.000000
    outer loop
      vertex 0.740120 1.379985 0.000000
      vertex 1.070568 2.397000 0.000000
      vertex 1.218691 2.397000 0.000000
    endloop
  endfacet
  facet normal -0.000000 -0.000000 -1.000000
    outer loop
      vertex 0.766481 1.436005 0.000000
      vertex 1.218691 2.397000 0.000000
      vertex 1.376347 2.397000 0.000000
    endloop
  endfacet
  facet normal -0.000000 -0.000000 -1.000000
    outer loop
      vertex 0.799655 1.488278 0.000000
      vertex 1.376347 2.397000 0.000000
      vertex 1.551415 2.397000 0.000000
    endloop
  endfacet
  facet normal -0.000000 -0.000000 -1.000000
    outer loop
      vertex 0.839118 1.535982 0.000000
      vertex 1.551415 2.397000 0.000000
      vertex 1.756010 2.397000 0.000000
    endloop
  endfacet
  facet normal -0.000000 -0.000000 -1.000000
    outer loop
      vertex 1.755211 2.211153 0.000000
      vertex 0.884250 1.578363 0.000000
      vertex 1.756010 2.397000 0.000000
    endloop
  endfacet
  facet normal -0.000000 -0.000000 -1.000000
    outer loop
      vertex 1.755211 2.211153 0.000000
      vertex 1.756010 2.397000 0.000000
      vertex 1.766903 2.397000 0.000000
    endloop
  endfacet
  facet normal -0.000000 0.000000 -1.000000
    outer loop
      vertex 0.934337 1.614754 0.000000
      vertex 1.755211 2.211153 0.000000
      vertex 1.745753 2.060833 0.000000
    endloop
  endfacet
  facet normal -0.000000 0.000000 -1.000000
    outer loop
      vertex 0.988591 1.644580 0.000000
      vertex 1.745753 2.060833 0.000000
      vertex 1.738238 1.941386 0.000000
    endloop
  endfacet
  facet normal -0.000000 0.000000 -1.000000
    outer loop
      vertex 1.046155 1.667371 0.000000
      vertex 1.738238 1.941386 0.000000
      vertex 1.732079 1.843486 0.000000
    endloop
  endfacet
  facet normal -0.000000 0.000000 -1.000000
    outer loop
      vertex 1.106121 1.682768 0.000000
      vertex 1.732079 1.843486 0.000000
      vertex 1.726901 1.761190 0.000000
    endloop
  endfacet
  facet normal -0.000000 0.000000 -1.000000
    outer loop
      vertex 1.167544 1.690527 0.000000
      vertex 1.726901 1.761190 0.000000
      vertex 1.722456 1.690527 0.000000
    endloop
  endfacet
  facet normal -0.000000 0.000000 -1.000000
    outer loop
      vertex 1.229456 1.690527 0.000000
      vertex 1.722456 1.690527 0.000000
      vertex 1.718568 1.628738 0.000000
    endloop
  endfacet
  facet normal -0.000000 0.000000 -1.000000
    outer loop
      vertex 1.290879 1.682768 0.000000
      vertex 1.718568 1.628738 0.000000
      vertex 1.715115 1.573842 0.000000
    endloop
  endfacet
  facet normal -0.000000 0.000000 -1.000000
    outer loop
      vertex 1.350845 1.667371 0.000000
      vertex 1.715115 1.573842 0.000000
      vertex 1.712003 1.524379 0.000000
    endloop
  endfacet
  facet normal -0.000000 0.000000 -1.000000
    outer loop
      vertex 1.408409 1.644580 0.000000
      vertex 1.712003 1.524379 0.000000
      vertex 1.709163 1.479239 0.000000
    endloop
  endfacet
  facet normal -0.000000 0.000000 -1.000000
    outer loop
      vertex 1.462663 1.614754 0.000000
      vertex 1.709163 1.479239 0.000000
      vertex 1.706541 1.437566 0.000000
    endloop
  endfacet
  facet normal -0.000000 0.000000 -1.000000
    outer loop
      vertex 1.512750 1.578363 0.000000
      vertex 1.706541 1.437566 0.000000
      vertex 1.704094 1.398679 0.000000
    endloop
  endfacet
  facet normal -0.000000 0.000000 -1.000000
    outer loop
      vertex 1.557882 1.535982 0.000000
      vertex 1.704094 1.398679 0.000000
      vertex 1.701788 1.362028 0.000000
    endloop
  endfacet
  facet normal -0.000000 0.000000 -1.000000
    outer loop
      vertex 1.597345 1.488278 0.000000
      vertex 1.701788 1.362028 0.000000
      vertex 1.699595 1.327159 0.000000
    endloop
  endfacet
  facet normal -0.000000 0.000000 -1.000000
    outer loop
      vertex 1.630519 1.436005 0.000000
      vertex 1.699595 1.327159 0.000000
      vertex 1.697489 1.293687 0.000000
    endloop
  endfacet
  facet normal -0.000000 0.000000 -1.000000
    outer loop
      vertex 1.656880 1.379985 0.000000
      vertex 1.697489 1.293687 0.000000
      vertex 1.695450 1.261279 0.000000
    endloop
  endfacet
  facet normal -0.000000 0.000000 -1.000000
    outer loop
      vertex 1.676011 1.321104 0.000000
      vertex 1.695450 1.261279 0.000000
      vertex 1.693459 1.229640 0.000000
    endloop
  endfacet
  facet normal -0.000000 0.000000 -1.000000
    outer loop
      vertex 1.687613 1.260289 0.000000
      vertex 1.693459 1.229640 0.000000
      vertex 1.691500 1.198500 0.000000
    endloop
  endfacet
  facet normal -0.000000 -0.000000 1.000000
    outer loop
      vertex 1.616097 0.000000 2.397000
      vertex 2.397000 0.000000 2.397000
      vertex 2.397000 2.397000 2.397000
    endloop
  endfacet
  facet normal -0.000000 -0.000000 1.000000
    outer loop
      vertex 1.616097 0.000000 2.397000
      vertex 2.397000 2.397000 2.397000
      vertex 1.766903 2.397000 2.397000
    endloop
  endfacet
  facet normal -0.000000 -0.000000 1.000000
    outer loop
      vertex 1.470773 0.000000 2.397000
      vertex 1.616097 0.000000 2.397000
      vertex 1.687613 1.136711 2.397000
    endloop
  endfacet
  facet normal -0.000000 -0.000000 1.000000
    outer loop
      vertex 1.326432 0.000000 2.397000
      vertex 1.470773 0.000000 2.397000
      vertex 1.676011 1.075896 2.397000
    endloop
  endfacet
  facet normal -0.000000 -0.000000 1.000000
    outer loop
      vertex 1.178309 0.000000 2.397000
      vertex 1.326432 0.000000 2.397000
      vertex 1.656880 1.017015 2.397000
    endloop
  endfacet
  facet normal -0.000000 -0.000000 1.000000
    outer loop
      vertex 1.020653 0.000000 2.397000
      vertex 1.178309 0.000000 2.397000
      vertex 1.630519 0.960995 2.397000
    endloop
  endfacet
  facet normal -0.000000 -0.000000 1.000000
    outer loop
      vertex 0.845585 0.000000 2.397000
      vertex 1.020653 0.000000 2.397000
      vertex 1.597345 0.908722 2.397000
    endloop
  endfacet
  facet normal -0.000000 -0.000000 1.000000
    outer loop
      vertex 0.640990 0.000000 2.397000
      vertex 0.845585 0.000000 2.397000
      vertex 1.557882 0.861018 2.397000
    endloop
  endfacet
  facet normal -0.000000 -0.000000 1.000000
    outer loop
      vertex 0.385993 0.000000 2.397000
      vertex 0.640990 0.000000 2.397000
      vertex 1.512750 0.818637 2.397000
    endloop
  endfacet
  facet normal -0.000000 -0.000000 1.000000
    outer loop
      vertex 0.039762 0.000000 2.397000
      vertex 0.385993 0.000000 2.397000
      vertex 1.462663 0.782246 2.397000
    endloop
  endfacet
  facet normal -0.000000 -0.000000 1.000000
    outer loop
      vertex 0.000000 0.194792 2.397000
      vertex 0.000000 0.000000 2.397000
      vertex 0.039762 0.000000 2.397000
    endloop
  endfacet
  facet normal -0.000000 -0.000000 1.000000
    outer loop
      vertex 0.000000 0.194792 2.397000
      vertex 0.039762 0.000000 2.397000
      vertex 1.408409 0.752420 2.397000
    endloop
  endfacet
  facet normal -0.000000 -0.000000 1.000000
    outer loop
      vertex 0.000000 0.382791 2.397000
      vertex 0.000000 0.194792 2.397000
      vertex 1.350845 0.729629 2.397000
    endloop
  endfacet
  facet normal -0.000000 -0.000000 1.000000
    outer loop
      vertex 0.000000 0.551156 2.397000
      vertex 0.000000 0.382791 2.397000
      vertex 1.290879 0.714232 2.397000
    endloop
  endfacet
  facet normal 0.000000 -0.000000 1.000000
    outer loop
      vertex 0.000000 0.706473 2.397000
      vertex 0.000000 0.551156 2.397000
      vertex 1.229456 0.706473 2.397000
    endloop
  endfacet
  facet normal -0.000000 -0.000000 1.000000
    outer loop
      vertex 0.000000 0.853968 2.397000
      vertex 0.000000 0.706473 2.397000
      vertex 1.167544 0.706473 2.397000
    endloop
  endfacet
  facet normal -0.000000 -0.000000 1.000000
    outer loop
      vertex 0.000000 0.998236 2.397000
      vertex 0.000000 0.853968 2.397000
      vertex 1.106121 0.714232 2.397000
    endloop
  endfacet
  facet normal -0.000000 -0.000000 1.000000
    outer loop
      vertex 0.000000 1.143831 2.397000
      vertex 0.000000 0.998236 2.397000
      vertex 1.046155 0.729629 2.397000
    endloop
  endfacet
  facet normal -0.000000 -0.000000 1.000000
    outer loop
      vertex 0.000000 1.295903 2.397000
      vertex 0.000000 1.143831 2.397000
      vertex 0.988591 0.752420 2.397000
    endloop
  endfacet
  facet normal -0.000000 -0.000000 1.000000
    outer loop
      vertex 0.000000 1.461082 2.397000
      vertex 0.000000 1.295903 2.397000
      vertex 0.934337 0.782246 2.397000
    endloop
  endfacet
  facet normal -0.000000 -0.000000 1.000000
    outer loop
      vertex 0.000000 1.649003 2.397000
      vertex 0.000000 1.461082 2.397000
      vertex 0.884250 0.818637 2.397000
    endloop
  endfacet
  facet normal -0.000000 -0.000000 1.000000
    outer loop
      vertex 0.000000 1.875338 2.397000
      vertex 0.000000 1.649003 2.397000
      vertex 0.839118 0.861018 2.397000
    endloop
  endfacet
  facet normal -0.000000 -0.000000 1.000000
    outer loop
      vertex 0.000000 2.168776 2.397000
      vertex 0.000000 1.875338 2.397000
      vertex 0.799655 0.908722 2.397000
    endloop
  endfacet
  facet normal -0.000000 -0.000000 1.000000
    outer loop
      vertex 0.000000 2.168776 2.397000
      vertex 0.766481 0.960995 2.397000
      vertex 0.090748 2.397000 2.397000
    endloop
  endfacet
  facet normal -0.000000 -0.000000 1.000000
    outer loop
      vertex 0.000000 2.168776 2.397000
      vertex 0.090748 2.397000 2.397000
      vertex 0.000000 2.397000 2.397000
    endloop
  endfacet
  facet normal -0.000000 -0.000000 1.000000
    outer loop
      vertex 0.740120 1.017015 2.397000
      vertex 0.291736 2.397000 2.397000
      vertex 0.090748 2.397000 2.397000
    endloop
  endfacet
  facet normal -0.000000 -0.000000 1.000000
    outer loop
      vertex 0.720989 1.075896 2.397000
      vertex 0.468974 2.397000 2.397000
      vertex 0.291736 2.397000 2.397000
    endloop
  endfacet
  facet normal -0.000000 -0.000000 1.000000
    outer loop
      vertex 0.709387 1.136711 2.397000
      vertex 0.630097 2.397000 2.397000
      vertex 0.468974 2.397000 2.397000
    endloop
  endfacet
  facet normal -0.000000 -0.000000 1.000000
    outer loop
      vertex 0.705500 1.198500 2.397000
      vertex 0.780903 2.397000 2.397000
      vertex 0.630097 2.397000 2.397000
    endloop
  endfacet
  facet normal -0.000000 0.000000 1.000000
    outer loop
      vertex 0.709387 1.260289 2.397000
      vertex 0.926227 2.397000 2.397000
      vertex 0.780903 2.397000 2.397000
    endloop
  endfacet
  facet normal -0.000000 0.000000 1.000000
    outer loop
      vertex 0.720989 1.321104 2.397000
      vertex 1.070568 2.397000 2.397000
      vertex 0.926227 2.397000 2.397000
    endloop
  endfacet
  facet normal -0.000000 0.000000 1.000000
    outer loop
      vertex 0.740120 1.379985 2.397000
      vertex 1.218691 2.397000 2.397000
      vertex 1.070568 2.397000 2.397000
    endloop
  endfacet
  facet normal -0.000000 0.000000 1.000000
    outer loop
      vertex 0.766481 1.436005 2.397000
      vertex 1.376347 2.397000 2.397000
      vertex 1.218691 2.397000 2.397000
    endloop
  endfacet
  facet normal -0.000000 0.000000 1.000000
    outer loop
      vertex 0.799655 1.488278 2.397000
      vertex 1.551415 2.397000 2.397000
      vertex 1.376347 2.397000 2.397000
    endloop
  endfacet
  facet normal -0.000000 0.000000 1.000000
    outer loop
      vertex 0.839118 1.535982 2.397000
      vertex 1.756010 2.397000 2.397000
      vertex 1.551415 2.397000 2.397000
    endloop
  endfacet
  facet normal -0.000000 0.000000 1.000000
    outer loop
      vertex 0.884250 1.578363 2.397000
      vertex 1.755211 2.211153 2.397000
      vertex 1.766903 2.397000 2.397000
    endloop
  endfacet
  facet normal -0.000000 0.000000 1.000000
    outer loop
      vertex 0.884250 1.578363 2.397000
      vertex 1.766903 2.397000 2.397000
      vertex 1.756010 2.397000 2.397000
    endloop
  endfacet
  facet normal -0.000000 -0.000000 1.000000
    outer loop
      vertex 0.934337 1.614754 2.397000
      vertex 1.745753 2.060833 2.397000
      vertex 1.755211 2.211153 2.397000
    endloop
  endfacet
  facet normal -0.000000 -0.000000 1.000000
    outer loop
      vertex 0.988591 1.644580 2.397000
      vertex 1.738238 1.941386 2.397000
      vertex 1.745753 2.060833 2.397000
    endloop
  endfacet
  facet normal -0.000000 -0.000000 1.000000
    outer loop
      vertex 1.046155 1.667371 2.397000
      vertex 1.732079 1.843486 2.397000
      vertex 1.738238 1.941386 2.397000
    endloop
  endfacet
  facet normal -0.000000 -0.000000 1.000000
    outer loop
      vertex 1.106121 1.682768 2.397000
      vertex 1.726901 1.761190 2.397000
      vertex 1.732079 1.843486 2.397000
    endloop
  endfacet
  facet normal -0.000000 -0.000000 1.000000
    outer loop
      vertex 1.167544 1.690527 2.397000
      vertex 1.722456 1.690527 2.397000
      vertex 1.726901 1.761190 2.397000
    endloop
  endfacet
  facet normal 0.000000 -0.000000 1.000000
    outer loop
      vertex 1.229456 1.690527 2.397000
      vertex 1.718568 1.628738 2.397000
      vertex 1.722456 1.690527 2.397000
    endloop
  endfacet
  facet normal 0.000000 -0.000000 1.000000
    outer loop
      vertex 1.290879 1.682768 2.397000
      vertex 1.715115 1.573842 2.397000
      vertex 1.718568 1.628738 2.397000
    endloop
  endfacet
  facet normal 0.000000 -0.000000 1.000000
    outer loop
      vertex 1.350845 1.667371 2.397000
      vertex 1.712003 1.524379 2.397000
      vertex 1.715115 1.573842 2.397000
    endloop
  endfacet
  facet normal 0.000000 -0.000000 1.000000
    outer loop
      vertex 1.408409 1.644580 2.397000
      vertex 1.709163 1.479239 2.397000
      vertex 1.712003 1.524379 2.397000
    endloop
  endfacet
  facet normal 0.000000 -0.000000 1.000000
    outer loop
      vertex 1.462663 1.614754 2.397000
      vertex 1.706541 1.437566 2.397000
      vertex 1.709163 1.479239 2.397000
    endloop
  endfacet
  facet normal 0.000000 -0.000000 1.000000
    outer loop
      vertex 1.512750 1.578363 2.397000
      vertex 1.704094 1.398679 2.397000
      vertex 1.706541 1.437566 2.397000
    endloop
  endfacet
  facet normal 0.000000 -0.000000 1.000000
    outer loop
      vertex 1.557882 1.535982 2.397000
      vertex 1.701788 1.362028 2.397000
      vertex 1.704094 1.398679 2.397000
    endloop
  endfacet
  facet normal 0.000000 -0.000000 1.000000
    outer loop
      vertex 1.597345 1.488278 2.397000
      vertex 1.699595 1.327159 2.397000
      vertex 1.701788 1.362028 2.397000
    endloop
  endfacet
  facet normal 0.000000 -0.000000 1.000000
    outer loop
      vertex 1.630519 1.436005 2.397000
      vertex 1.697489 1.293687 2.397000
      vertex 1.699595 1.327159 2.397000
    endloop
  endfacet
  facet normal 0.000000 -0.000000 1.000000
    outer loop
      vertex 1.656880 1.379985 2.397000
      vertex 1.695450 1.261279 2.397000
      vertex 1.697489 1.293687 2.397000
    endloop
  endfacet
  facet normal 0.000000 -0.000000 1.000000
    outer loop
      vertex 1.676011 1.321104 2.397000
      vertex 1.693459 1.229640 2.397000
      vertex 1.695450 1.261279 2.397000
    endloop
  endfacet
  facet normal 0.000000 -0.000000 1.000000
    outer loop
      vertex 1.687613 1.260289 2.397000
      vertex 1.691500 1.198500 2.397000
      vertex 1.693459 1.229640 2.397000
    endloop
  endfacet
  facet normal 0.000000 -1.000000 -0.000000
    outer loop
      vertex 1.616097 0.000000 0.000000
      vertex 2.397000 0.000000 0.000000
      vertex 2.397000 0.000000 2.397000
    endloop
  endfacet
  facet normal 0.000000 -1.000000 -0.000000
    outer loop
      vertex 1.616097 0.000000 0.000000
      vertex 2.397000 0.000000 2.397000
      vertex 1.616097 0.000000 2.397000
    endloop
  endfacet
  facet normal 0.000000 -1.000000 -0.000000
    outer loop
      vertex 1.470773 0.000000 0.000000
      vertex 1.616097 0.000000 0.000000
      vertex 1.616097 0.000000 2.397000
    endloop
  endfacet
  facet normal 0.000000 -1.000000 -0.000000
    outer loop
      vertex 1.470773 0.000000 0.000000
      vertex 1.616097 0.000000 2.397000
      vertex 1.470773 0.000000 2.397000
    endloop
  endfacet
  facet normal 0.000000 -1.000000 -0.000000
    outer loop
      vertex 1.326432 0.000000 0.000000
      vertex 1.470773 0.000000 0.000000
      vertex 1.470773 0.000000 2.397000
    endloop
  endfacet
  facet normal 0.000000 -1.000000 -0.000000
    outer loop
      vertex 1.326432 0.000000 0.000000
      vertex 1.470773 0.000000 2.397000
      vertex 1.326432 0.000000 2.397000
    endloop
  endfacet
  facet normal 0.000000 -1.000000 -0.000000
    outer loop
      vertex 1.178309 0.000000 0.000000
      vertex 1.326432 0.000000 0.000000
      vertex 1.326432 0.000000 2.397000
    endloop
  endfacet
  facet normal 0.000000 -1.000000 -0.000000
    outer loop
      vertex 1.178309 0.000000 0.000000
      vertex 1.326432 0.000000 2.397000
      vertex 1.178309 0.000000 2.397000
    endloop
  endfacet
  facet normal 0.000000 -1.000000 -0.000000
    outer loop
      vertex 1.020653 0.000000 0.000000
      vertex 1.178309 0.000000 0.000000
      vertex 1.178309 0.000000 2.397000
    endloop
  endfacet
  facet normal 0.000000 -1.000000 -0.000000
    outer loop
      vertex 1.020653 0.000000 0.000000
      vertex 1.178309 0.000000 2.397000
      vertex 1.020653 0.000000 2.397000
    endloop
  endfacet
  facet normal 0.000000 -1.000000 -0.000000
    outer loop
      vertex 0.845585 0.000000 0.000000
      vertex 1.020653 0.000000 0.000000
      vertex 1.020653 0.000000 2.397000
    endloop
  endfacet
  facet normal 0.000000 -1.000000 -0.000000
    outer loop
      vertex 0.845585 0.000000 0.000000
      vertex 1.020653 0.000000 2.397000
      vertex 0.845585 0.000000 2.397000
    endloop
  endfacet
  facet normal 0.000000 -1.000000 -0.000000
    outer loop
      vertex 0.640990 0.000000 0.000000
      vertex 0.845585 0.000000 0.000000
      vertex 0.845585 0.000000 2.397000
    endloop
  endfacet
  facet normal 0.000000 -1.000000 -0.000000
    outer loop
      vertex 0.640990 0.000000 0.000000
      vertex 0.845585 0.000000 2.397000
      vertex 0.640990 0.000000 2.397000
    endloop
  endfacet
  facet normal 0.000000 -1.000000 -0.000000
    outer loop
      vertex 0.385993 0.000000 0.000000
      vertex 0.640990 0.000000 0.000000
      vertex 0.640990 0.000000 2.397000
    endloop
  endfacet
  facet normal 0.000000 -1.000000 -0.000000
    outer loop
      vertex 0.385993 0.000000 0.000000
      vertex 0.640990 0.000000 2.397000
      vertex 0.385993 0.000000 2.397000
    endloop
  endfacet
  facet normal 0.000000 -1.000000 -0.000000
    outer loop
      vertex 0.039762 0.000000 0.000000
      vertex 0.385993 0.000000 0.000000
      vertex 0.385993 0.000000 2.397000
    endloop
  endfacet
  facet normal 0.000000 -1.000000 -0.000000
    outer loop
      vertex 0.039762 0.000000 0.000000
      vertex 0.385993 0.000000 2.397000
      vertex 0.039762 0.000000 2.397000
    endloop
  endfacet
  facet normal 0.000000 -1.000000 -0.000000
    outer loop
      vertex 0.000000 0.000000 0.000000
      vertex 0.039762 0.000000 0.000000
      vertex 0.039762 0.000000 2.397000
    endloop
  endfacet
  facet normal 0.000000 -1.000000 -0.000000
    outer loop
      vertex 0.000000 0.000000 0.000000
      vertex 0.039762 0.000000 2.397000
      vertex 0.000000 0.000000 2.397000
    endloop
  endfacet
  facet normal -0.000000 1.000000 -0.000000
    outer loop
      vertex 1.766903 2.397000 0.000000
      vertex 1.766903 2.397000 2.397000
      vertex 2.397000 2.397000 2.397000
    endloop
  endfacet
  facet normal -0.000000 1.000000 -0.000000
    outer loop
      vertex 1.766903 2.397000 0.000000
      vertex 2.397000 2.397000 2.397000
      vertex 2.397000 2.397000 0.000000
    endloop
  endfacet
  facet normal 0.000000 1.000000 -0.000000
    outer loop
      vertex 0.090748 2.397000 0.000000
      vertex 0.000000 2.397000 0.000000
      vertex 0.000000 2.397000 2.397000
    endloop
  endfacet
  facet normal 0.000000 1.000000 -0.000000
    outer loop
      vertex 0.090748 2.397000 0.000000
      vertex 0.000000 2.397000 2.397000
      vertex 0.090748 2.397000 2.397000
    endloop
  endfacet
  facet normal 0.000000 1.000000 -0.000000
    outer loop
      vertex 0.291736 2.397000 0.000000
      vertex 0.090748 2.397000 0.000000
      vertex 0.090748 2.397000 2.397000
    endloop
  endfacet
  facet normal 0.000000 1.000000 -0.000000
    outer loop
      vertex 0.291736 2.397000 0.000000
      vertex 0.090748 2.397000 2.397000
      vertex 0.291736 2.397000 2.397000
    endloop
  endfacet
  facet normal 0.000000 1.000000 -0.000000
    outer loop
      vertex 0.468974 2.397000 0.000000
      vertex 0.291736 2.397000 0.000000
      vertex 0.291736 2.397000 2.397000
    endloop
  endfacet
  facet normal 0.000000 1.000000 -0.000000
    outer loop
      vertex 0.468974 2.397000 0.000000
      vertex 0.291736 2.397000 2.397000
      vertex 0.468974 2.397000 2.397000
    endloop
  endfacet
  facet normal 0.000000 1.000000 -0.000000
    outer loop
      vertex 0.630097 2.397000 0.000000
      vertex 0.468974 2.397000 0.000000
      vertex 0.468974 2.397000 2.397000
    endloop
  endfacet
  facet normal 0.000000 1.000000 -0.000000
    outer loop
      vertex 0.630097 2.397000 0.000000
      vertex 0.468974 2.397000 2.397000
      vertex 0.630097 2.397000 2.397000
    endloop
  endfacet
  facet normal 0.000000 1.000000 -0.000000
    outer loop
      vertex 0.780903 2.397000 0.000000
      vertex 0.630097 2.397000 0.000000
      vertex 0.630097 2.397000 2.397000
    endloop
  endfacet
  facet normal 0.000000 1.000000 -0.000000
    outer loop
      vertex 0.780903 2.397000 0.000000
      vertex 0.630097 2.397000 2.397000
      vertex 0.780903 2.397000 2.397000
    endloop
  endfacet
  facet normal 0.000000 1.000000 -0.000000
    outer loop
      vertex 0.926227 2.397000 0.000000
      vertex 0.780903 2.397000 0.000000
      vertex 0.780903 2.397000 2.397000
    endloop
  endfacet
  facet normal 0.000000 1.000000 -0.000000
    outer loop
      vertex 0.926227 2.397000 0.000000
      vertex 0.780903 2.397000 2.397000
      vertex 0.926227 2.397000 2.397000
    endloop
  endfacet
  facet normal 0.000000 1.000000 -0.000000
    outer loop
      vertex 1.070568 2.397000 0.000000
      vertex 0.926227 2.397000 0.000000
      vertex 0.926227 2.397000 2.397000
    endloop
  endfacet
  facet normal 0.000000 1.000000 -0.000000
    outer loop
      vertex 1.070568 2.397000 0.000000
      vertex 0.926227 2.397000 2.397000
      vertex 1.070568 2.397000 2.397000
    endloop
  endfacet
  facet normal 0.000000 1.000000 -0.000000
    outer loop
      vertex 1.218691 2.397000 0.000000
      vertex 1.070568 2.397000 0.000000
      vertex 1.070568 2.397000 2.397000
    endloop
  endfacet
  facet normal 0.000000 1.000000 -0.000000
    outer loop
      vertex 1.218691 2.397000 0.000000
      vertex 1.070568 2.397000 2.397000
      vertex 1.218691 2.397000 2.397000
    endloop
  endfacet
  facet normal 0.000000 1.000000 -0.000000
    outer loop
      vertex 1.376347 2.397000 0.000000
      vertex 1.218691 2.397000 0.000000
      vertex 1.218691 2.397000 2.397000
    endloop
  endfacet
  facet normal 0.000000 1.000000 -0.000000
    outer loop
      vertex 1.376347 2.397000 0.000000
      vertex 1.218691 2.397000 2.397000
      vertex 1.376347 2.397000 2.397000
    endloop
  endfacet
  facet normal 0.000000 1.000000 -0.000000
    outer loop
      vertex 1.551415 2.397000 0.000000
      vertex 1.376347 2.397000 0.000000
      vertex 1.376347 2.397000 2.397000
    endloop
  endfacet
  facet normal 0.000000 1.000000 -0.000000
    outer loop
      vertex 1.551415 2.397000 0.000000
      vertex 1.376347 2.397000 2.397000
      vertex 1.551415 2.397000 2.397000
    endloop
  endfacet
  facet normal 0.000000 1.000000 -0.000000
    outer loop
      vertex 1.756010 2.397000 0.000000
      vertex 1.551415 2.397000 0.000000
      vertex 1.551415 2.397000 2.397000
    endloop
  endfacet
  facet normal 0.000000 1.000000 -0.000000
    outer loop
      vertex 1.756010 2.397000 0.000000
      vertex 1.551415 2.397000 2.397000
      vertex 1.756010 2.397000 2.397000
    endloop
  endfacet
  facet normal 0.000000 1.000000 -0.000000
    outer loop
      vertex 1.766903 2.397000 0.000000
      vertex 1.756010 2.397000 0.000000
      vertex 1.756010 2.397000 2.397000
    endloop
  endfacet
  facet normal 0.000000 1.000000 -0.000000
    outer loop
      vertex 1.766903 2.397000 0.000000
      vertex 1.756010 2.397000 2.397000
      vertex 1.766903 2.397000 2.397000
    endloop
  endfacet
  facet normal -1.000000 -0.000000 -0.000000
    outer loop
      vertex 0.000000 0.194792 0.000000
      vertex 0.000000 0.000000 0.000000
      vertex 0.000000 0.000000 2.397000
    endloop
  endfacet
  facet normal -1.000000 -0.000000 -0.000000
    outer loop
      vertex 0.000000 0.194792 0.000000
      vertex 0.000000 0.000000 2.397000
      vertex 0.000000 0.194792 2.397000
    endloop
  endfacet
  facet normal -1.000000 -0.000000 -0.000000
    outer loop
      vertex 0.000000 0.382791 0.000000
      vertex 0.000000 0.194792 0.000000
      vertex 0.000000 0.194792 2.397000
    endloop
  endfacet
  facet normal -1.000000 -0.000000 -0.000000
    outer loop
      vertex 0.000000 0.382791 0.000000
      vertex 0.000000 0.194792 2.397000
      vertex 0.000000 0.382791 2.397000
    endloop
  endfacet
  facet normal -1.000000 -0.000000 -0.000000
    outer loop
      vertex 0.000000 0.551156 0.000000
      vertex 0.000000 0.382791 0.000000
      vertex 0.000000 0.382791 2.397000
    endloop
  endfacet
  facet normal -1.000000 -0.000000 -0.000000
    outer loop
      vertex 0.000000 0.551156 0.000000
      vertex 0.000000 0.382791 2.397000
      vertex 0.000000 0.551156 2.397000
    endloop
  endfacet
  facet normal -1.000000 -0.000000 -0.000000
    outer loop
      vertex 0.000000 0.706473 0.000000
      vertex 0.000000 0.551156 0.000000
      vertex 0.000000 0.551156 2.397000
    endloop
  endfacet
  facet normal -1.000000 -0.000000 -0.000000
    outer loop
      vertex 0.000000 0.706473 0.000000
      vertex 0.000000 0.551156 2.397000
      vertex 0.000000 0.706473 2.397000
    endloop
  endfacet
  facet normal -1.000000 -0.000000 -0.000000
    outer loop
      vertex 0.000000 0.853968 0.000000
      vertex 0.000000 0.706473 0.000000
      vertex 0.000000 0.706473 2.397000
    endloop
  endfacet
  facet normal -1.000000 -0.000000 -0.000000
    outer loop
      vertex 0.000000 0.853968 0.000000
      vertex 0.000000 0.706473 2.397000
      vertex 0.000000 0.853968 2.397000
    endloop
  endfacet
  facet normal -1.000000 -0.000000 -0.000000
    outer loop
      vertex 0.000000 0.998236 0.000000
      vertex 0.000000 0.853968 0.000000
      vertex 0.000000 0.853968 2.397000
    endloop
  endfacet
  facet normal -1.000000 -0.000000 -0.000000
    outer loop
      vertex 0.000000 0.998236 0.000000
      vertex 0.000000 0.853968 2.397000
      vertex 0.000000 0.998236 2.397000
    endloop
  endfacet
  facet normal -1.000000 -0.000000 -0.000000
    outer loop
      vertex 0.000000 1.143831 0.000000
      vertex 0.000000 0.998236 0.000000
      vertex 0.000000 0.998236 2.397000
    endloop
  endfacet
  facet normal -1.000000 -0.000000 -0.000000
    outer loop
      vertex 0.000000 1.143831 0.000000
      vertex 0.000000 0.998236 2.397000
      vertex 0.000000 1.143831 2.397000
    endloop
  endfacet
  facet normal -1.000000 -0.000000 -0.000000
    outer loop
      vertex 0.000000 1.295903 0.000000
      vertex 0.000000 1.143831 0.000000
      vertex 0.000000 1.143831 2.397000
    endloop
  endfacet
  facet normal -1.000000 -0.000000 -0.000000
    outer loop
      vertex 0.000000 1.295903 0.000000
      vertex 0.000000 1.143831 2.397000
      vertex 0.000000 1.295903 2.397000
    endloop
  endfacet
  facet normal -1.000000 -0.000000 -0.000000
    outer loop
      vertex 0.000000 1.461082 0.000000
      vertex 0.000000 1.295903 0.000000
      vertex 0.000000 1.295903 2.397000
    endloop
  endfacet
  facet normal -1.000000 -0.000000 -0.000000
    outer loop
      vertex 0.000000 1.461082 0.000000
      vertex 0.000000 1.295903 2.397000
      vertex 0.000000 1.461082 2.397000
    endloop
  endfacet
  facet normal -1.000000 -0.000000 -0.000000
    outer loop
      vertex 0.000000 1.649003 0.000000
      vertex 0.000000 1.461082 0.000000
      vertex 0.000000 1.461082 2.397000
    endloop
  endfacet
  facet normal -1.000000 -0.000000 -0.000000
    outer loop
      vertex 0.000000 1.649003 0.000000
      vertex 0.000000 1.461082 2.397000
      vertex 0.000000 1.649003 2.397000
    endloop
  endfacet
  facet normal -1.000000 -0.000000 -0.000000
    outer loop
      vertex 0.000000 1.875338 0.000000
      vertex 0.000000 1.649003 0.000000
      vertex 0.000000 1.649003 2.397000
    endloop
  endfacet
  facet normal -1.000000 -0.000000 -0.000000
    outer loop
      vertex 0.000000 1.875338 0.000000
      vertex 0.000000 1.649003 2.397000
      vertex 0.000000 1.875338 2.397000
    endloop
  endfacet
  facet normal -1.000000 -0.000000 -0.000000
    outer loop
      vertex 0.000000 2.168776 0.000000
      vertex 0.000000 1.875338 0.000000
      vertex 0.000000 1.875338 2.397000
    endloop
  endfacet
  facet normal -1.000000 -0.000000 -0.000000
    outer loop
      vertex 0.000000 2.168776 0.000000
      vertex 0.000000 1.875338 2.397000
      vertex 0.000000 2.168776 2.397000
    endloop
  endfacet
  facet normal -1.000000 -0.000000 0.000000
    outer loop
      vertex 0.000000 2.168776 0.000000
      vertex 0.000000 2.168776 2.397000
      vertex 0.000000 2.397000 2.397000
    endloop
  endfacet
  facet normal -1.000000 -0.000000 0.000000
    outer loop
      vertex 0.000000 2.168776 0.000000
      vertex 0.000000 2.397000 2.397000
      vertex 0.000000 2.397000 0.000000
    endloop
  endfacet
  facet normal 1.000000 0.000000 0.000000
    outer loop
      vertex 2.397000 0.000000 0.000000
      vertex 2.397000 2.397000 0.000000
      vertex 2.397000 2.397000 2.397000
    endloop
  endfacet
  facet normal 1.000000 0.000000 0.000000
    outer loop
      vertex 2.397000 0.000000 0.000000
      vertex 2.397000 2.397000 2.397000
      vertex 2.397000 0.000000 2.397000
    endloop
  endfacet
  facet normal -0.998027 0.062791 -0.000000
    outer loop
      vertex 1.687613 1.136711 2.397000
      vertex 1.691500 1.198500 2.397000
      vertex 1.691500 1.198500 0.000000
    endloop
  endfacet
  facet normal -0.998027 0.062791 -0.000000
    outer loop
      vertex 1.687613 1.136711 2.397000
      vertex 1.691500 1.198500 0.000000
      vertex 1.687613 1.136711 0.000000
    endloop
  endfacet
  facet normal -0.982287 0.187381 -0.000000
    outer loop
      vertex 1.676011 1.075896 2.397000
      vertex 1.687613 1.136711 2.397000
      vertex 1.687613 1.136711 0.000000
    endloop
  endfacet
  facet normal -0.982287 0.187381 -0.000000
    outer loop
      vertex 1.676011 1.075896 2.397000
      vertex 1.687613 1.136711 0.000000
      vertex 1.676011 1.075896 0.000000
    endloop
  endfacet
  facet normal -0.951057 0.309017 -0.000000
    outer loop
      vertex 1.656880 1.017015 2.397000
      vertex 1.676011 1.075896 2.397000
      vertex 1.676011 1.075896 0.000000
    endloop
  endfacet
  facet normal -0.951057 0.309017 -0.000000
    outer loop
      vertex 1.656880 1.017015 2.397000
      vertex 1.676011 1.075896 0.000000
      vertex 1.656880 1.017015 0.000000
    endloop
  endfacet
  facet normal -0.904827 0.425779 -0.000000
    outer loop
      vertex 1.630519 0.960995 2.397000
      vertex 1.656880 1.017015 2.397000
      vertex 1.656880 1.017015 0.000000
    endloop
  endfacet
  facet normal -0.904827 0.425779 -0.000000
    outer loop
      vertex 1.630519 0.960995 2.397000
      vertex 1.656880 1.017015 0.000000
      vertex 1.630519 0.960995 0.000000
    endloop
  endfacet
  facet normal -0.844328 0.535827 -0.000000
    outer loop
      vertex 1.597345 0.908722 2.397000
      vertex 1.630519 0.960995 2.397000
      vertex 1.630519 0.960995 0.000000
    endloop
  endfacet
  facet normal -0.844328 0.535827 -0.000000
    outer loop
      vertex 1.597345 0.908722 2.397000
      vertex 1.630519 0.960995 0.000000
      vertex 1.597345 0.908722 0.000000
    endloop
  endfacet
  facet normal -0.770513 0.637424 -0.000000
    outer loop
      vertex 1.557882 0.861018 2.397000
      vertex 1.597345 0.908722 2.397000
      vertex 1.597345 0.908722 0.000000
    endloop
  endfacet
  facet normal -0.770513 0.637424 -0.000000
    outer loop
      vertex 1.557882 0.861018 2.397000
      vertex 1.597345 0.908722 0.000000
      vertex 1.557882 0.861018 0.000000
    endloop
  endfacet
  facet normal -0.684547 0.728969 -0.000000
    outer loop
      vertex 1.512750 0.818637 2.397000
      vertex 1.557882 0.861018 2.397000
      vertex 1.557882 0.861018 0.000000
    endloop
  endfacet
  facet normal -0.684547 0.728969 -0.000000
    outer loop
      vertex 1.512750 0.818637 2.397000
      vertex 1.557882 0.861018 0.000000
      vertex 1.512750 0.818637 0.000000
    endloop
  endfacet
  facet normal -0.587785 0.809017 -0.000000
    outer loop
      vertex 1.462663 0.782246 2.397000
      vertex 1.512750 0.818637 2.397000
      vertex 1.512750 0.818637 0.000000
    endloop
  endfacet
  facet normal -0.587785 0.809017 -0.000000
    outer loop
      vertex 1.462663 0.782246 2.397000
      vertex 1.512750 0.818637 0.000000
      vertex 1.462663 0.782246 0.000000
    endloop
  endfacet
  facet normal -0.481754 0.876307 -0.000000
    outer loop
      vertex 1.408409 0.752420 2.397000
      vertex 1.462663 0.782246 2.397000
      vertex 1.462663 0.782246 0.000000
    endloop
  endfacet
  facet normal -0.481754 0.876307 -0.000000
    outer loop
      vertex 1.408409 0.752420 2.397000
      vertex 1.462663 0.782246 0.000000
      vertex 1.408409 0.752420 0.000000
    endloop
  endfacet
  facet normal -0.368125 0.929776 -0.000000
    outer loop
      vertex 1.350845 0.729629 2.397000
      vertex 1.408409 0.752420 2.397000
      vertex 1.408409 0.752420 0.000000
    endloop
  endfacet
  facet normal -0.368125 0.929776 -0.000000
    outer loop
      vertex 1.350845 0.729629 2.397000
      vertex 1.408409 0.752420 0.000000
      vertex 1.350845 0.729629 0.000000
    endloop
  endfacet
  facet normal -0.248690 0.968583 -0.000000
    outer loop
      vertex 1.290879 0.714232 2.397000
      vertex 1.350845 0.729629 2.397000
      vertex 1.350845 0.729629 0.000000
    endloop
  endfacet
  facet normal -0.248690 0.968583 -0.000000
    outer loop
      vertex 1.290879 0.714232 2.397000
      vertex 1.350845 0.729629 0.000000
      vertex 1.290879 0.714232 0.000000
    endloop
  endfacet
  facet normal -0.125333 0.992115 -0.000000
    outer loop
      vertex 1.229456 0.706473 2.397000
      vertex 1.290879 0.714232 2.397000
      vertex 1.290879 0.714232 0.000000
    endloop
  endfacet
  facet normal -0.125333 0.992115 -0.000000
    outer loop
      vertex 1.229456 0.706473 2.397000
      vertex 1.290879 0.714232 0.000000
      vertex 1.229456 0.706473 0.000000
    endloop
  endfacet
  facet normal -0.000000 1.000000 -0.000000
    outer loop
      vertex 1.167544 0.706473 2.397000
      vertex 1.229456 0.706473 2.397000
      vertex 1.229456 0.706473 0.000000
    endloop
  endfacet
  facet normal -0.000000 1.000000 -0.000000
    outer loop
      vertex 1.167544 0.706473 2.397000
      vertex 1.229456 0.706473 0.000000
      vertex 1.167544 0.706473 0.000000
    endloop
  endfacet
  facet normal 0.125333 0.992115 -0.000000
    outer loop
      vertex 1.106121 0.714232 2.397000
      vertex 1.167544 0.706473 2.397000
      vertex 1.167544 0.706473 0.000000
    endloop
  endfacet
  facet normal 0.125333 0.992115 -0.000000
    outer loop
      vertex 1.106121 0.714232 2.397000
      vertex 1.167544 0.706473 0.000000
      vertex 1.106121 0.714232 0.000000
    endloop
  endfacet
  facet normal 0.248690 0.968583 -0.000000
    outer loop
      vertex 1.046155 0.729629 2.397000
      vertex 1.106121 0.714232 2.397000
      vertex 1.106121 0.714232 0.000000
    endloop
  endfacet
  facet normal 0.248690 0.968583 -0.000000
    outer loop
      vertex 1.046155 0.729629 2.397000
      vertex 1.106121 0.714232 0.000000
      vertex 1.046155 0.729629 0.000000
    endloop
  endfacet
  facet normal 0.368125 0.929776 -0.000000
    outer loop
      vertex 0.988591 0.752420 2.397000
      vertex 1.046155 0.729629 2.397000
      vertex 1.046155 0.729629 0.000000
    endloop
  endfacet
  facet normal 0.368125 0.929776 -0.000000
    outer loop
      vertex 0.988591 0.752420 2.397000
      vertex 1.046155 0.729629 0.000000
      vertex 0.988591 0.752420 0.000000
    endloop
  endfacet
  facet normal 0.481754 0.876307 -0.000000
    outer loop
      vertex 0.934337 0.782246 2.397000
      vertex 0.988591 0.752420 2.397000
      vertex 0.988591 0.752420 0.000000
    endloop
  endfacet
  facet normal 0.481754 0.876307 -0.000000
    outer loop
      vertex 0.934337 0.782246 2.397000
      vertex 0.988591 0.752420 0.000000
      vertex 0.934337 0.782246 0.000000
    endloop
  endfacet
  facet normal 0.587785 0.809017 -0.000000
    outer loop
      vertex 0.884250 0.818637 2.397000
      vertex 0.934337 0.782246 2.397000
      vertex 0.934337 0.782246 0.000000
    endloop
  endfacet
  facet normal 0.587785 0.809017 -0.000000
    outer loop
      vertex 0.884250 0.818637 2.397000
      vertex 0.934337 0.782246 0.000000
      vertex 0.884250 0.818637 0.000000
    endloop
  endfacet
  facet normal 0.684547 0.728969 -0.000000
    outer loop
      vertex 0.839118 0.861018 2.397000
      vertex 0.884250 0.818637 2.397000
      vertex 0.884250 0.818637 0.000000
    endloop
  endfacet
  facet normal 0.684547 0.728969 -0.000000
    outer loop
      vertex 0.839118 0.861018 2.397000
      vertex 0.884250 0.818637 0.000000
      vertex 0.839118 0.861018 0.000000
    endloop
  endfacet
  facet normal 0.770513 0.637424 -0.000000
    outer loop
      vertex 0.799655 0.908722 2.397000
      vertex 0.839118 0.861018 2.397000
      vertex 0.839118 0.861018 0.000000
    endloop
  endfacet
  facet normal 0.770513 0.637424 -0.000000
    outer loop
      vertex 0.799655 0.908722 2.397000
      vertex 0.839118 0.861018 0.000000
      vertex 0.799655 0.908722 0.000000
    endloop
  endfacet
  facet normal 0.844328 0.535827 -0.000000
    outer loop
      vertex 0.766481 0.960995 2.397000
      vertex 0.799655 0.908722 2.397000
      vertex 0.799655 0.908722 0.000000
    endloop
  endfacet
  facet normal 0.844328 0.535827 -0.000000
    outer loop
      vertex 0.766481 0.960995 2.397000
      vertex 0.799655 0.908722 0.000000
      vertex 0.766481 0.960995 0.000000
    endloop
  endfacet
  facet normal 0.904827 0.425779 -0.000000
    outer loop
      vertex 0.740120 1.017015 2.397000
      vertex 0.766481 0.960995 2.397000
      vertex 0.766481 0.960995 0.000000
    endloop
  endfacet
  facet normal 0.904827 0.425779 -0.000000
    outer loop
      vertex 0.740120 1.017015 2.397000
      vertex 0.766481 0.960995 0.000000
      vertex 0.740120 1.017015 0.000000
    endloop
  endfacet
  facet normal 0.951057 0.309017 -0.000000
    outer loop
      vertex 0.720989 1.075896 2.397000
      vertex 0.740120 1.017015 2.397000
      vertex 0.740120 1.017015 0.000000
    endloop
  endfacet
  facet normal 0.951057 0.309017 -0.000000
    outer loop
      vertex 0.720989 1.075896 2.397000
      vertex 0.740120 1.017015 0.000000
      vertex 0.720989 1.075896 0.000000
    endloop
  endfacet
  facet normal 0.982287 0.187381 -0.000000
    outer loop
      vertex 0.709387 1.136711 2.397000
      vertex 0.720989 1.075896 2.397000
      vertex 0.720989 1.075896 0.000000
    endloop
  endfacet
  facet normal 0.982287 0.187381 -0.000000
    outer loop
      vertex 0.709387 1.136711 2.397000
      vertex 0.720989 1.075896 0.000000
      vertex 0.709387 1.136711 0.000000
    endloop
  endfacet
  facet normal 0.998027 0.062791 -0.000000
    outer loop
      vertex 0.705500 1.198500 2.397000
      vertex 0.709387 1.136711 2.397000
      vertex 0.709387 1.136711 0.000000
    endloop
  endfacet
  facet normal 0.998027 0.062791 -0.000000
    outer loop
      vertex 0.705500 1.198500 2.397000
      vertex 0.709387 1.136711 0.000000
      vertex 0.705500 1.198500 0.000000
    endloop
  endfacet
  facet normal 0.998027 -0.062791 -0.000000
    outer loop
      vertex 0.709387 1.260289 2.397000
      vertex 0.705500 1.198500 2.397000
      vertex 0.705500 1.198500 0.000000
    endloop
  endfacet
  facet normal 0.998027 -0.062791 -0.000000
    outer loop
      vertex 0.709387 1.260289 2.397000
      vertex 0.705500 1.198500 0.000000
      vertex 0.709387 1.260289 0.000000
    endloop
  endfacet
  facet normal 0.982287 -0.187381 -0.000000
    outer loop
      vertex 0.720989 1.321104 2.397000
      vertex 0.709387 1.260289 2.397000
      vertex 0.709387 1.260289 0.000000
    endloop
  endfacet
  facet normal 0.982287 -0.187381 -0.000000
    outer loop
      vertex 0.720989 1.321104 2.397000
      vertex 0.709387 1.260289 0.000000
      vertex 0.720989 1.321104 0.000000
    endloop
  endfacet
  facet normal 0.951057 -0.309017 -0.000000
    outer loop
      vertex 0.740120 1.379985 2.397000
      vertex 0.720989 1.321104 2.397000
      vertex 0.720989 1.321104 0.000000
    endloop
  endfacet
  facet normal 0.951057 -0.309017 -0.000000
    outer loop
      vertex 0.740120 1.379985 2.397000
      vertex 0.720989 1.321104 0.000000
      vertex 0.740120 1.379985 0.000000
    endloop
  endfacet
  facet normal 0.904827 -0.425779 -0.000000
    outer loop
      vertex 0.766481 1.436005 2.397000
      vertex 0.740120 1.379985 2.397000
      vertex 0.740120 1.379985 0.000000
    endloop
  endfacet
  facet normal 0.904827 -0.425779 -0.000000
    outer loop
      vertex 0.766481 1.436005 2.397000
      vertex 0.740120 1.379985 0.000000
      vertex 0.766481 1.436005 0.000000
    endloop
  endfacet
  facet normal 0.844328 -0.535827 -0.000000
    outer loop
      vertex 0.799655 1.488278 2.397000
      vertex 0.766481 1.436005 2.397000
      vertex 0.766481 1.436005 0.000000
    endloop
  endfacet
  facet normal 0.844328 -0.535827 -0.000000
    outer loop
      vertex 0.799655 1.488278 2.397000
      vertex 0.766481 1.436005 0.000000
      vertex 0.799655 1.488278 0.000000
    endloop
  endfacet
  facet normal 0.770513 -0.637424 -0.000000
    outer loop
      vertex 0.839118 1.535982 2.397000
      vertex 0.799655 1.488278 2.397000
      vertex 0.799655 1.488278 0.000000
    endloop
  endfacet
  facet normal 0.770513 -0.637424 -0.000000
    outer loop
      vertex 0.839118 1.535982 2.397000
      vertex 0.799655 1.488278 0.000000
      vertex 0.839118 1.535982 0.000000
    endloop
  endfacet
  facet normal 0.684547 -0.728969 -0.000000
    outer loop
      vertex 0.884250 1.578363 2.397000
      vertex 0.839118 1.535982 2.397000
      vertex 0.839118 1.535982 0.000000
    endloop
  endfacet
  facet normal 0.684547 -0.728969 -0.000000
    outer loop
      vertex 0.884250 1.578363 2.397000
      vertex 0.839118 1.535982 0.000000
      vertex 0.884250 1.578363 0.000000
    endloop
  endfacet
  facet normal 0.587785 -0.809017 -0.000000
    outer loop
      vertex 0.934337 1.614754 2.397000
      vertex 0.884250 1.578363 2.397000
      vertex 0.884250 1.578363 0.000000
    endloop
  endfacet
  facet normal 0.587785 -0.809017 -0.000000
    outer loop
      vertex 0.934337 1.614754 2.397000
      vertex 0.884250 1.578363 0.000000
      vertex 0.934337 1.614754 0.000000
    endloop
  endfacet
  facet normal 0.481754 -0.876307 -0.000000
    outer loop
      vertex 0.988591 1.644580 2.397000
      vertex 0.934337 1.614754 2.397000
      vertex 0.934337 1.614754 0.000000
    endloop
  endfacet
  facet normal 0.481754 -0.876307 -0.000000
    outer loop
      vertex 0.988591 1.644580 2.397000
      vertex 0.934337 1.614754 0.000000
      vertex 0.988591 1.644580 0.000000
    endloop
  endfacet
  facet normal 0.368125 -0.929776 -0.000000
    outer loop
      vertex 1.046155 1.667371 2.397000
      vertex 0.988591 1.644580 2.397000
      vertex 0.988591 1.644580 0.000000
    endloop
  endfacet
  facet normal 0.368125 -0.929776 -0.000000
    outer loop
      vertex 1.046155 1.667371 2.397000
      vertex 0.988591 1.644580 0.000000
      vertex 1.046155 1.667371 0.000000
    endloop
  endfacet
  facet normal 0.248690 -0.968583 -0.000000
    outer loop
      vertex 1.106121 1.682768 2.397000
      vertex 1.046155 1.667371 2.397000
      vertex 1.046155 1.667371 0.000000
    endloop
  endfacet
  facet normal 0.248690 -0.968583 -0.000000
    outer loop
      vertex 1.106121 1.682768 2.397000
      vertex 1.046155 1.667371 0.000000
      vertex 1.106121 1.682768 0.000000
    endloop
  endfacet
  facet normal 0.125333 -0.992115 -0.000000
    outer loop
      vertex 1.167544 1.690527 2.397000
      vertex 1.106121 1.682768 2.397000
      vertex 1.106121 1.682768 0.000000
    endloop
  endfacet
  facet normal 0.125333 -0.992115 -0.000000
    outer loop
      vertex 1.167544 1.690527 2.397000
      vertex 1.106121 1.682768 0.000000
      vertex 1.167544 1.690527 0.000000
    endloop
  endfacet
  facet normal -0.000000 -1.000000 -0.000000
    outer loop
      vertex 1.229456 1.690527 2.397000
      vertex 1.167544 1.690527 2.397000
      vertex 1.167544 1.690527 0.000000
    endloop
  endfacet
  facet normal -0.000000 -1.000000 -0.000000
    outer loop
      vertex 1.229456 1.690527 2.397000
      vertex 1.167544 1.690527 0.000000
      vertex 1.229456 1.690527 0.000000
    endloop
  endfacet
  facet normal -0.125333 -0.992115 -0.000000
    outer loop
      vertex 1.290879 1.682768 2.397000
      vertex 1.229456 1.690527 2.397000
      vertex 1.229456 1.690527 0.000000
    endloop
  endfacet
  facet normal -0.125333 -0.992115 -0.000000
    outer loop
      vertex 1.290879 1.682768 2.397000
      vertex 1.229456 1.690527 0.000000
      vertex 1.290879 1.682768 0.000000
    endloop
  endfacet
  facet normal -0.248690 -0.968583 -0.000000
    outer loop
      vertex 1.350845 1.667371 2.397000
      vertex 1.290879 1.682768 2.397000
      vertex 1.290879 1.682768 0.000000
    endloop
  endfacet
  facet normal -0.248690 -0.968583 -0.000000
    outer loop
      vertex 1.350845 1.667371 2.397000
      vertex 1.290879 1.682768 0.000000
      vertex 1.350845 1.667371 0.000000
    endloop
  endfacet
  facet normal -0.368125 -0.929776 -0.000000
    outer loop
      vertex 1.408409 1.644580 2.397000
      vertex 1.350845 1.667371 2.397000
      vertex 1.350845 1.667371 0.000000
    endloop
  endfacet
  facet normal -0.368125 -0.929776 -0.000000
    outer loop
      vertex 1.408409 1.644580 2.397000
      vertex 1.350845 1.667371 0.000000
      vertex 1.408409 1.644580 0.000000
    endloop
  endfacet
  facet normal -0.481754 -0.876307 -0.000000
    outer loop
      vertex 1.462663 1.614754 2.397000
      vertex 1.408409 1.644580 2.397000
      vertex 1.408409 1.644580 0.000000
    endloop
  endfacet
  facet normal -0.481754 -0.876307 -0.000000
    outer loop
      vertex 1.462663 1.614754 2.397000
      vertex 1.408409 1.644580 0.000000
      vertex 1.462663 1.614754 0.000000
    endloop
  endfacet
  facet normal -0.587785 -0.809017 -0.000000
    outer loop
      vertex 1.512750 1.578363 2.397000
      vertex 1.462663 1.614754 2.397000
      vertex 1.462663 1.614754 0.000000
    endloop
  endfacet
  facet normal -0.587785 -0.809017 -0.000000
    outer loop
      vertex 1.512750 1.578363 2.397000
      vertex 1.462663 1.614754 0.000000
      vertex 1.512750 1.578363 0.000000
    endloop
  endfacet
  facet normal -0.684547 -0.728969 -0.000000
    outer loop
      vertex 1.557882 1.535982 2.397000
      vertex 1.512750 1.578363 2.397000
      vertex 1.512750 1.578363 0.000000
    endloop
  endfacet
  facet normal -0.684547 -0.728969 -0.000000
    outer loop
      vertex 1.557882 1.535982 2.397000
      vertex 1.512750 1.578363 0.000000
      vertex 1.557882 1.535982 0.000000
    endloop
  endfacet
  facet normal -0.770513 -0.637424 -0.000000
    outer loop
      vertex 1.597345 1.488278 2.397000
      vertex 1.557882 1.535982 2.397000
      vertex 1.557882 1.535982 0.000000
    endloop
  endfacet
  facet normal -0.770513 -0.637424 -0.000000
    outer loop
      vertex 1.597345 1.488278 2.397000
      vertex 1.557882 1.535982 0.000000
      vertex 1.597345 1.488278 0.000000
    endloop
  endfacet
  facet normal -0.844328 -0.535827 -0.000000
    outer loop
      vertex 1.630519 1.436005 2.397000
      vertex 1.597345 1.488278 2.397000
      vertex 1.597345 1.488278 0.000000
    endloop
  endfacet
  facet normal -0.844328 -0.535827 -0.000000
    outer loop
      vertex 1.630519 1.436005 2.397000
      vertex 1.597345 1.488278 0.000000
      vertex 1.630519 1.436005 0.000000
    endloop
  endfacet
  facet normal -0.904827 -0.425779 -0.000000
    outer loop
      vertex 1.656880 1.379985 2.397000
      vertex 1.630519 1.436005 2.397000
      vertex 1.630519 1.436005 0.000000
    endloop
  endfacet
  facet normal -0.904827 -0.425779 -0.000000
    outer loop
      vertex 1.656880 1.379985 2.397000
      vertex 1.630519 1.436005 0.000000
      vertex 1.656880 1.379985 0.000000
    endloop
  endfacet
  facet normal -0.951057 -0.309017 -0.000000
    outer loop
      vertex 1.676011 1.321104 2.397000
      vertex 1.656880 1.379985 2.397000
      vertex 1.656880 1.379985 0.000000
    endloop
  endfacet
  facet normal -0.951057 -0.309017 -0.000000
    outer loop
      vertex 1.676011 1.321104 2.397000
      vertex 1.656880 1.379985 0.000000
      vertex 1.676011 1.321104 0.000000
    endloop
  endfacet
  facet normal -0.982287 -0.187381 -0.000000
    outer loop
      vertex 1.687613 1.260289 2.397000
      vertex 1.676011 1.321104 2.397000
      vertex 1.676011 1.321104 0.000000
    endloop
  endfacet
  facet normal -0.982287 -0.187381 -0.000000
    outer loop
      vertex 1.687613 1.260289 2.397000
      vertex 1.676011 1.321104 0.000000
      vertex 1.687613 1.260289 0.000000
    endloop
  endfacet
  facet normal -0.998027 -0.062791 -0.000000
    outer loop
      vertex 1.691500 1.198500 2.397000
      vertex 1.687613 1.260289 2.397000
      vertex 1.687613 1.260289 0.000000
    endloop
  endfacet
  facet normal -0.998027 -0.062791 -0.000000
    outer loop
      vertex 1.691500 1.198500 2.397000
      vertex 1.687613 1.260289 0.000000
      vertex 1.691500 1.198500 0.000000
    endloop
  endfacet
endsolid cube-with-tube-5.len_side-2.397_tube_diameter-0.986_segments-50
